name Walk7.mot
datacolumns 19
datarows 17
range 1.59000000 1.67000000
endheader

                time	   L_ground_force_vx	   L_ground_force_vy	   L_ground_force_vz	   L_ground_force_px	   L_ground_force_py	   L_ground_force_pz	   R_ground_force_vx	   R_ground_force_vy	   R_ground_force_vz	   R_ground_force_px	   R_ground_force_py	   R_ground_force_pz	   L_ground_torque_x	   L_ground_torque_y	   L_ground_torque_z	   R_ground_torque_x	   R_ground_torque_y	   R_ground_torque_z	
          1.59000000	          3.83192180	         66.32098418	          0.97169468	         -0.07309929	          0.00000000	         -0.01176821	          0.00000000	          0.00000000	          0.00000000	          0.00000000	          0.00000000	          0.00000000	          0.00000000	         -0.07841948	          0.00000000	          0.00000000	         -0.00000000	          0.00000000	
          1.59500000	          3.84008219	         99.89301784	          1.67410682	         -0.16128509	          0.00000000	         -0.02564148	         -0.00000000	          0.00000000	          0.00000000	          0.00000000	          0.00000000	          0.00000000	          0.00000000	         -0.10649584	          0.00000000	          0.00000000	         -0.00000000	          0.00000000	
          1.60000000	          2.56097608	        134.63772038	          2.08560347	         -0.23842753	          0.00000000	         -0.03772594	         -0.00000000	          0.00000000	          0.00000000	          0.00000000	          0.00000000	          0.00000000	          0.00000000	         -0.12693635	          0.00000000	          0.00000000	         -0.00000000	          0.00000000	
          1.60500000	         -0.21440723	        169.26549892	          2.19170401	         -0.30224526	          0.00000000	         -0.04765985	         -0.00000000	          0.00000000	          0.00000000	          0.00000000	          0.00000000	          0.00000000	          0.00000000	         -0.13617991	          0.00000000	          0.00000000	         -0.00000000	          0.00000000	
          1.61000000	         -4.46514684	        202.92295619	          2.07077585	         -0.35234481	          0.00000000	         -0.05539726	         -0.00000000	          0.00000000	          0.00000000	          0.00000000	          0.00000000	          0.00000000	          0.00000000	         -0.13074970	          0.00000000	          0.00000000	         -0.00000000	          0.00000000	
          1.61500000	         -9.92654152	        235.10666675	          1.85812143	         -0.38957694	          0.00000000	         -0.06110278	         -0.00000000	          0.00000000	          0.00000000	          0.00000000	          0.00000000	          0.00000000	          0.00000000	         -0.10838283	          0.00000000	          0.00000000	         -0.00000000	          0.00000000	
          1.62000000	        -16.14460076	        265.47025971	          1.69593494	         -0.41552019	          0.00000000	         -0.06505893	         -0.00000000	          0.00000000	          0.00000000	          0.00000000	          0.00000000	          0.00000000	          0.00000000	         -0.06888722	          0.00000000	          0.00000000	         -0.00000000	          0.00000000	
          1.62500000	        -22.55028568	        293.76628114	          1.69899560	         -0.43209046	          0.00000000	         -0.06759567	         -0.00000000	          0.00000000	          0.00000000	          0.00000000	          0.00000000	          0.00000000	          0.00000000	         -0.01479608	          0.00000000	          0.00000000	         -0.00000000	          0.00000000	
          1.63000000	        -28.56353177	        319.89118542	          1.94371945	         -0.44126185	          0.00000000	         -0.06904458	         -0.00000000	          0.00000000	          0.00000000	          0.00000000	          0.00000000	          0.00000000	          0.00000000	          0.04842202	          0.00000000	          0.00000000	          0.00000000	          0.00000000	
          1.63500000	        -33.73317193	        343.90483675	          2.48468918	         -0.44488154	          0.00000000	         -0.06971053	         -0.00000000	          0.00000000	          0.00000000	          0.00000000	          0.00000000	         -0.00000000	          0.00000000	          0.11319926	          0.00000000	          0.00000000	          0.00000000	          0.00000000	
          1.64000000	        -37.86882175	        365.98130617	          3.38458757	         -0.44455895	          0.00000000	         -0.06985909	         -0.00000000	          0.00000000	         -0.00000000	         -0.00000000	          0.00000000	         -0.00000000	          0.00000000	          0.17137408	          0.00000000	          0.00000000	          0.00000000	          0.00000000	
          1.64500000	        -41.07100195	        386.35307656	          4.71611318	         -0.44161639	          0.00000000	         -0.06971095	         -0.00000000	         -0.00000000	         -0.00000000	         -0.00000000	          0.00000000	         -0.00000000	          0.00000000	          0.21600216	          0.00000000	          0.00000000	          0.00000000	          0.00000000	
          1.65000000	        -43.62001735	        405.29984773	          6.52917606	         -0.43708394	          0.00000000	         -0.06943812	         -0.00000000	         -0.00000000	         -0.00000000	         -0.00000000	          0.00000000	         -0.00000000	          0.00000000	          0.24316224	          0.00000000	          0.00000000	          0.00000000	          0.00000000	
          1.65500000	        -45.81601591	        423.16598166	          8.82684129	         -0.43172423	          0.00000000	         -0.06916705	         -0.00000000	         -0.00000001	         -0.00000000	         -0.00000000	          0.00000000	         -0.00000000	          0.00000000	          0.25294784	          0.00000000	          0.00000000	          0.00000000	          0.00000000	
          1.66000000	        -47.88012463	        440.35849576	         11.56655698	         -0.42607373	          0.00000000	         -0.06898615	         -0.00000000	         -0.00000001	         -0.00000000	         -0.00000000	          0.00000000	         -0.00000000	          0.00000000	          0.24989670	          0.00000000	          0.00000000	          0.00000000	          0.00000000	
          1.66500000	        -49.94098093	        457.30446466	         14.66677616	         -0.42048703	          0.00000000	         -0.06894696	          0.00000000	         -0.00000002	         -0.00000000	         -0.00000000	          0.00000000	         -0.00000000	          0.00000000	          0.24298110	          0.00000000	          0.00000000	          0.00000000	          0.00000000	
          1.67000000	        -52.07020337	        474.35766559	         18.00564356	         -0.41518199	          0.00000000	         -0.06906806	          0.00000000	         -0.00000003	         -0.00000000	         -0.00000000	          0.00000000	         -0.00000000	          0.00000000	          0.24478949	          0.00000000	          0.00000000	          0.00000000	          0.00000000	
